<svg xmlns="http://www.w3.org/2000/svg" width="1400" height="788" viewBox="0 0 1400 788" role="img" aria-labelledby="title desc">
  <title id="title">Day 90: 90 Days Later: What AI Is Really Becoming</title>
  <desc id="desc">Modern blog hero graphic for 90 Days Later: What AI Is Really Becoming.</desc>
  <defs>
    <linearGradient id="bg" x1="0" y1="0" x2="1" y2="1">
      <stop offset="0" stop-color="#f8fafc"/>
      <stop offset="0.55" stop-color="#ffffff"/>
      <stop offset="1" stop-color="#eef2ff"/>
    </linearGradient>
    <linearGradient id="cardGlow" x1="0" y1="0" x2="1" y2="1">
      <stop offset="0" stop-color="#64748b"/>
      <stop offset="1" stop-color="#34d399"/>
    </linearGradient>
    <linearGradient id="darkGlow" x1="0" y1="0" x2="1" y2="1">
      <stop offset="0" stop-color="#111827"/>
      <stop offset="1" stop-color="#111827"/>
    </linearGradient>
    <filter id="shadow" x="-20%" y="-20%" width="140%" height="140%">
      <feDropShadow dx="0" dy="18" stdDeviation="18" flood-color="#0f172a" flood-opacity="0.18"/>
    </filter>
  </defs>
  <rect width="1400" height="788" fill="url(#bg)"/>
  <path d="M1060 -40 C1260 80 1325 250 1440 380 L1440 0 Z" fill="#64748b" opacity="0.22"/>
  <path d="M-70 620 C150 505 295 610 415 780 L-70 780 Z" fill="#34d399" opacity="0.25"/>
  <g opacity="0.20" stroke="#64748b" stroke-width="2">
    <path d="M75 330 H610"/><path d="M75 570 H660"/><path d="M115 302 V612"/><path d="M520 302 V612"/>
  </g>
  <rect x="70" y="58" width="310" height="48" rx="16" fill="#111827"/>
  <text x="94" y="90" font-family="Arial, sans-serif" font-size="24" font-weight="900" fill="#ffffff">DAY 90 / 90 DAYS OF AI</text>
  <text x="70" y="166" font-family="Arial, sans-serif" font-size="50" font-weight="900" fill="#111827">90 Days Later: What AI Is Really Becoming</text>
  <text x="73" y="214" font-family="Arial, sans-serif" font-size="25" font-weight="700" fill="#475569">Series Finale made visual, practical, and snackable.</text>
  <g transform="translate(70 248)">
    <rect x="0" y="0" width="172" height="42" rx="15" fill="#64748b"/>
    <text x="24" y="28" font-family="Arial, sans-serif" font-size="18" font-weight="900" fill="#ffffff">NO FLUFF</text>
    <rect x="188" y="0" width="178" height="42" rx="15" fill="#34d399"/>
    <text x="213" y="28" font-family="Arial, sans-serif" font-size="18" font-weight="900" fill="#111827">REAL EXAMPLES</text>
  </g>
  <g filter="url(#shadow)">
    <rect x="90" y="400" width="245" height="142" rx="28" fill="#ffffff" stroke="#64748b" stroke-width="4"/>
    <rect x="390" y="360" width="245" height="222" rx="34" fill="url(#cardGlow)" opacity="0.96"/>
    <rect x="690" y="400" width="245" height="142" rx="28" fill="#ffffff" stroke="#34d399" stroke-width="4"/>
    <rect x="990" y="360" width="245" height="222" rx="34" fill="url(#darkGlow)" opacity="0.98"/>
  </g>
  <g font-family="Arial, sans-serif">
    <text x="125" y="446" font-size="26" font-weight="900" fill="#64748b">01</text>
    <text x="212" y="462" text-anchor="middle" font-size="25" font-weight="900" fill="#111827">Learn</text>
    <text x="212" y="499" text-anchor="middle" font-size="19" fill="#475569">plain English</text>
    <text x="425" y="418" font-size="28" font-weight="900" fill="#ffffff">02</text>
    <text x="512" y="472" text-anchor="middle" font-size="28" font-weight="900" fill="#ffffff">Build</text>
    <text x="512" y="512" text-anchor="middle" font-size="20" font-weight="700" fill="#f8fafc">tiny workflow</text>
    <text x="725" y="446" font-size="26" font-weight="900" fill="#64748b">03</text>
    <text x="812" y="462" text-anchor="middle" font-size="25" font-weight="900" fill="#111827">Check</text>
    <text x="812" y="499" text-anchor="middle" font-size="19" fill="#475569">trust, but test</text>
    <text x="1025" y="418" font-size="28" font-weight="900" fill="#34d399">04</text>
    <text x="1112" y="472" text-anchor="middle" font-size="28" font-weight="900" fill="#ffffff">Ship</text>
    <text x="1112" y="512" text-anchor="middle" font-size="20" font-weight="700" fill="#e5e7eb">with receipts</text>
  </g>
  <g stroke="#111827" stroke-width="8" stroke-linecap="round" opacity="0.52">
    <path d="M345 471 H378"/><path d="M645 471 H678"/><path d="M945 471 H978"/>
  </g>
  <rect x="70" y="650" width="640" height="70" rx="24" fill="#111827"/>
  <text x="105" y="694" font-family="Arial, sans-serif" font-size="23" font-weight="900" fill="#ffffff">Useful AI, minus the buzzword fog.</text>
</svg>
