<svg xmlns="http://www.w3.org/2000/svg" width="1600" height="840" viewBox="0 0 1600 840" role="img" aria-labelledby="title desc">
  <title id="title">Day 88 cover - AI Skills for 2026: What Builders Should Learn Next</title>
  <desc id="desc">Hashnode cover image for the 90 Days of AI series.</desc>
  <defs>
    <radialGradient id="glow" cx="20%" cy="35%" r="80%">
      <stop offset="0" stop-color="#a855f7" stop-opacity="0.45"/>
      <stop offset="0.45" stop-color="#10051f" stop-opacity="0.75"/>
      <stop offset="1" stop-color="#020205"/>
    </radialGradient>
    <linearGradient id="slash" x1="0" y1="0" x2="1" y2="1">
      <stop offset="0" stop-color="#22d3ee" stop-opacity="0.95"/>
      <stop offset="1" stop-color="#a855f7" stop-opacity="0.25"/>
    </linearGradient>
    <filter id="softShadow" x="-20%" y="-20%" width="140%" height="140%">
      <feDropShadow dx="0" dy="14" stdDeviation="18" flood-color="#000000" flood-opacity="0.35"/>
    </filter>
    <filter id="textShadow" x="-20%" y="-20%" width="140%" height="140%">
      <feDropShadow dx="4" dy="5" stdDeviation="3" flood-color="#000000" flood-opacity="0.75"/>
    </filter>
  </defs>
  <rect width="1600" height="840" fill="url(#glow)"/>
  <rect width="1600" height="840" fill="#050816" opacity="0.22"/>
  <path d="M900 -80 C1190 90 1390 335 1625 620 L1625 840 L1165 840 C1085 650 1000 430 780 135 Z" fill="#111827" opacity="0.60"/>
  <path d="M1385 48 C1210 150 1080 308 1026 478" fill="none" stroke="url(#slash)" stroke-width="76" stroke-linecap="round" opacity="0.88"/>
  <path d="M1470 112 C1290 198 1175 342 1110 522" fill="none" stroke="#ffffff" stroke-width="20" stroke-linecap="round" opacity="0.40"/>
  <path d="M1115 90 L1530 270 L1365 620 L980 485 Z" fill="#ffffff" opacity="0.045"/>
  <g opacity="0.16">
    <rect x="875" y="224" width="155" height="48" rx="14" fill="#ffffff"/>
    <rect x="1040" y="324" width="175" height="48" rx="14" fill="#ffffff"/>
    <rect x="952" y="426" width="190" height="48" rx="14" fill="#ffffff"/>
    <rect x="1190" y="526" width="155" height="48" rx="14" fill="#ffffff"/>
  </g>
  <g opacity="0.22" stroke="#22d3ee" stroke-width="2">
    <path d="M72 248 H672"/>
    <path d="M72 654 H760"/>
    <path d="M96 228 V674"/>
    <path d="M714 228 V650"/>
  </g>
  <g filter="url(#textShadow)">
    <text x="110" y="105" font-family="Arial, sans-serif" font-size="38" font-style="italic" font-weight="800" fill="#ffffff">Learn with HJ</text>
    <rect x="108" y="138" width="285" height="54" rx="18" fill="#22d3ee" opacity="0.98"/>
    <text x="135" y="174" font-family="Arial, sans-serif" font-size="26" font-weight="900" fill="#050816">90 DAYS OF AI</text>
    <rect x="412" y="138" width="142" height="54" rx="18" fill="#ffffff" opacity="0.92"/>
    <text x="441" y="174" font-family="Arial, sans-serif" font-size="26" font-weight="900" fill="#050816">DAY 88</text>
    <text x="110" y="286" font-family="Arial Black, Arial, sans-serif" font-size="66" font-weight="900" fill="#ffffff">AI Skills for 2026: What</text>
<text x="110" y="356" font-family="Arial Black, Arial, sans-serif" font-size="66" font-weight="900" fill="#ffffff">Builders Should Learn</text>
<text x="110" y="426" font-family="Arial Black, Arial, sans-serif" font-size="66" font-weight="900" fill="#ffffff">Next</text>
  </g>
  <rect x="110" y="460" width="520" height="10" rx="5" fill="#a855f7"/>
  <rect x="110" y="478" width="285" height="10" rx="5" fill="#22d3ee"/>
  <g filter="url(#textShadow)">
    <rect x="110" y="498" width="540" height="64" rx="22" fill="#ffffff" opacity="0.12"/>
    <text x="140" y="538" font-family="Arial, sans-serif" font-size="28" font-weight="900" fill="#ffffff">VISUAL GUIDE + EXAMPLES</text>
    <text x="110" y="594" font-family="Arial, sans-serif" font-size="27" font-weight="800" fill="#22d3ee">CAREER &amp; LEARNING • NO FLUFF, JUST SIGNAL</text>
  </g>
  <g transform="translate(1068 612)" filter="url(#textShadow)">
    <rect x="0" y="0" width="310" height="70" rx="24" fill="#ffffff" opacity="0.13"/>
    <text x="28" y="44" font-family="Arial, sans-serif" font-size="24" font-weight="900" fill="#ffffff">signal &gt; hype</text>
  </g>
  <g transform="translate(110 720)">
    <rect x="0" y="0" width="42" height="42" rx="9" fill="#0a66c2"/><text x="21" y="29" text-anchor="middle" font-family="Arial" font-size="22" font-weight="900" fill="#ffffff">in</text>
    <rect x="56" y="0" width="42" height="42" rx="9" fill="#111111"/><text x="77" y="29" text-anchor="middle" font-family="Arial" font-size="22" font-weight="900" fill="#ffffff">X</text>
    <rect x="112" y="0" width="42" height="42" rx="9" fill="#ef4444"/><text x="133" y="29" text-anchor="middle" font-family="Arial" font-size="22" font-weight="900" fill="#ffffff">▶</text>
    <text x="178" y="31" font-family="Arial, sans-serif" font-size="32" font-weight="900" fill="#ffffff">@hardeepjethwani</text>
  </g>
  <g transform="translate(1272 720)" opacity="0.82">
    <image href="kapistra-icon-cutout.png" x="0" y="0" width="58" height="54" preserveAspectRatio="xMidYMid meet"/>
    <image href="kapistra-name-transparent.png" x="71" y="8" width="205" height="38" preserveAspectRatio="xMidYMid meet"/>
  </g>
  <rect x="0" y="0" width="1600" height="840" fill="none" stroke="#a855f7" stroke-width="4" opacity="0.35"/>
</svg>
