<svg xmlns="http://www.w3.org/2000/svg" width="1600" height="840" viewBox="0 0 1600 840" role="img" aria-labelledby="title desc">
  <title id="title">Day 10 cover - Fine-Tuning vs RAG: Which One Should You Actually Use?</title>
  <desc id="desc">Hashnode cover image for the 90 Days of AI series.</desc>
  <defs>
    <radialGradient id="glow" cx="20%" cy="35%" r="80%">
      <stop offset="0" stop-color="#8b5cf6" stop-opacity="0.45"/>
      <stop offset="0.45" stop-color="#08051f" stop-opacity="0.75"/>
      <stop offset="1" stop-color="#020205"/>
    </radialGradient>
    <linearGradient id="slash" x1="0" y1="0" x2="1" y2="1">
      <stop offset="0" stop-color="#06b6d4" stop-opacity="0.95"/>
      <stop offset="1" stop-color="#8b5cf6" stop-opacity="0.25"/>
    </linearGradient>
    <filter id="softShadow" x="-20%" y="-20%" width="140%" height="140%">
      <feDropShadow dx="0" dy="14" stdDeviation="18" flood-color="#000000" flood-opacity="0.35"/>
    </filter>
    <filter id="textShadow" x="-20%" y="-20%" width="140%" height="140%">
      <feDropShadow dx="4" dy="5" stdDeviation="3" flood-color="#000000" flood-opacity="0.75"/>
    </filter>
  </defs>
  <rect width="1600" height="840" fill="url(#glow)"/>
  <rect width="1600" height="840" fill="#030305" opacity="0.35"/>
  <path d="M970 -80 C1270 140 1400 420 1610 655 L1610 840 L1220 840 C1120 630 1030 390 840 150 Z" fill="#111827" opacity="0.72"/>
  <path d="M1390 60 C1210 160 1090 300 1035 475" fill="none" stroke="url(#slash)" stroke-width="70" stroke-linecap="round" opacity="0.88"/>
  <path d="M1475 115 C1290 195 1165 330 1105 520" fill="none" stroke="#ffffff" stroke-width="22" stroke-linecap="round" opacity="0.42"/>
  <g opacity="0.10">
    <rect x="930" y="235" width="170" height="55" fill="#ffffff"/>
    <rect x="1085" y="335" width="170" height="55" fill="#ffffff"/>
    <rect x="1015" y="435" width="170" height="55" fill="#ffffff"/>
    <rect x="1185" y="535" width="170" height="55" fill="#ffffff"/>
  </g>
  <image href="kapistra-watermark.png" x="1185" y="295" width="285" height="285" opacity="0.16"/>
  <g filter="url(#textShadow)">
    <text x="110" y="105" font-family="Arial, sans-serif" font-size="38" font-style="italic" font-weight="800" fill="#ffffff">Learn with HJ</text>
    <text x="110" y="178" font-family="Arial, sans-serif" font-size="34" font-weight="900" fill="#06b6d4">90 DAYS OF AI</text>
    <text x="405" y="178" font-family="Arial, sans-serif" font-size="34" font-weight="900" fill="#ffffff">• DAY 10</text>
    <text x="110" y="310" font-family="Arial Black, Arial, sans-serif" font-size="74" font-weight="900" fill="#ffffff">Fine-Tuning vs RAG: Which</text>
<text x="110" y="388" font-family="Arial Black, Arial, sans-serif" font-size="74" font-weight="900" fill="#ffffff">One Should You Actually</text>
<text x="110" y="466" font-family="Arial Black, Arial, sans-serif" font-size="74" font-weight="900" fill="#ffffff">Use?</text>
  </g>
  <rect x="110" y="496" width="520" height="10" rx="5" fill="#8b5cf6"/>
  <rect x="110" y="514" width="270" height="10" rx="5" fill="#06b6d4"/>
  <text x="110" y="578" font-family="Arial Black, Arial, sans-serif" font-size="42" font-weight="900" fill="#ffffff" filter="url(#textShadow)">THE PRACTICAL GUIDE + CHEAT SHEET</text>
  <text x="110" y="636" font-family="Arial, sans-serif" font-size="30" font-weight="800" fill="#06b6d4">RAG &amp; SEARCH • NO FLUFF, JUST SIGNAL</text>
  <g transform="translate(110 720)">
    <rect x="0" y="0" width="42" height="42" rx="9" fill="#0a66c2"/><text x="21" y="29" text-anchor="middle" font-family="Arial" font-size="22" font-weight="900" fill="#ffffff">in</text>
    <rect x="56" y="0" width="42" height="42" rx="9" fill="#111111"/><text x="77" y="29" text-anchor="middle" font-family="Arial" font-size="22" font-weight="900" fill="#ffffff">X</text>
    <rect x="112" y="0" width="42" height="42" rx="9" fill="#ef4444"/><text x="133" y="29" text-anchor="middle" font-family="Arial" font-size="22" font-weight="900" fill="#ffffff">▶</text>
    <text x="178" y="31" font-family="Arial, sans-serif" font-size="32" font-weight="900" fill="#ffffff">@hardeepjethwani</text>
  </g>
  <g transform="translate(1218 638)" opacity="0.94">
    <rect x="0" y="0" width="326" height="150" rx="30" fill="#05070d" stroke="#ffffff" stroke-opacity="0.24" stroke-width="3"/>
    <image href="kapistra-watermark.png" x="18" y="23" width="104" height="104" opacity="0.90"/>
    <text x="140" y="64" font-family="Arial, sans-serif" font-size="31" font-weight="900" fill="#ffffff">KAPISTRA</text>
    <text x="140" y="103" font-family="Arial, sans-serif" font-size="21" font-weight="800" fill="#06b6d4">Learn. Build. Lead.</text>
  </g>
  <rect x="0" y="0" width="1600" height="840" fill="none" stroke="#8b5cf6" stroke-width="4" opacity="0.35"/>
</svg>
