<svg xmlns="http://www.w3.org/2000/svg" width="1200" height="675" viewBox="0 0 1200 675" role="img" aria-labelledby="title desc">
  <title id="title">Day 3 concept flow</title>
  <desc id="desc">A four-step concept flow for Why AI Suddenly Feels Everywhere in 2026.</desc>
  <rect width="1200" height="675" fill="#fff7ed"/>
  <rect x="55" y="55" width="1090" height="565" rx="28" fill="#ffffff" stroke="#ffedd5" stroke-width="3"/>
  <text x="95" y="118" font-family="Arial, sans-serif" font-size="36" font-weight="900" fill="#111827">Day 03 Flow: AI Trends</text>
  <text x="95" y="158" font-family="Arial, sans-serif" font-size="21" fill="#52606d">Why AI Suddenly Feels Everywhere in 2026</text>
  <g font-family="Arial, sans-serif">
    <rect x="95" y="270" width="190" height="120" rx="22" fill="#ffedd5" stroke="#fb923c" stroke-width="3"/>
    <text x="190" y="320" text-anchor="middle" font-size="25" font-weight="800" fill="#c2410c">1. Trend</text>
    <text x="190" y="354" text-anchor="middle" font-size="18" fill="#475569">start clear</text>
    <rect x="365" y="270" width="190" height="120" rx="22" fill="#f8fafc" stroke="#fb923c" stroke-width="3"/>
    <text x="460" y="320" text-anchor="middle" font-size="25" font-weight="800" fill="#c2410c">2. Why now</text>
    <text x="460" y="354" text-anchor="middle" font-size="18" fill="#475569">add context</text>
    <rect x="635" y="270" width="190" height="120" rx="22" fill="#ffedd5" stroke="#fb923c" stroke-width="3"/>
    <text x="730" y="320" text-anchor="middle" font-size="25" font-weight="800" fill="#c2410c">3. What changes</text>
    <text x="730" y="354" text-anchor="middle" font-size="18" fill="#475569">make it work</text>
    <rect x="905" y="270" width="190" height="120" rx="22" fill="#111827" stroke="#111827" stroke-width="3"/>
    <text x="1000" y="320" text-anchor="middle" font-size="25" font-weight="800" fill="#ffffff">4. Builder move</text>
    <text x="1000" y="354" text-anchor="middle" font-size="18" fill="#e5e7eb">check reality</text>
    <path d="M285 330 H355" stroke="#64748b" stroke-width="5" stroke-linecap="round"/><path d="M355 330 l-16 -11 v22 z" fill="#64748b"/>
    <path d="M555 330 H625" stroke="#64748b" stroke-width="5" stroke-linecap="round"/><path d="M625 330 l-16 -11 v22 z" fill="#64748b"/>
    <path d="M825 330 H895" stroke="#64748b" stroke-width="5" stroke-linecap="round"/><path d="M895 330 l-16 -11 v22 z" fill="#64748b"/>
  </g>
  <rect x="95" y="500" width="770" height="62" rx="18" fill="#111827"/>
  <text x="130" y="540" font-family="Arial, sans-serif" font-size="22" font-weight="700" fill="#ffffff">Builder rule: if it affects users, add validation before celebration.</text>
</svg>
